<?xml version="1.0" encoding="UTF-8" standalone="no"?>
<!-- This is a Stata 17.0 generated SVG file (http://www.stata.com) -->

<svg version="1.1" width="600px" height="436px" viewBox="0 0 3960 2880" xmlns="http://www.w3.org/2000/svg" xmlns:xlink="http://www.w3.org/1999/xlink">
	<desc>Stata Graph - Graph</desc>
	<rect x="0" y="0" width="3960" height="2880" style="fill:#EAF2F3;stroke:none"/>
	<rect x="0.00" y="0.00" width="3959.88" height="2880.00" style="fill:#EAF2F3"/>
	<rect x="2.88" y="2.88" width="3954.12" height="2874.24" style="fill:none;stroke:#EAF2F3;stroke-width:5.76"/>
	<rect x="290.81" y="100.86" width="3568.21" height="2132.77" style="fill:#FFFFFF"/>
	<rect x="293.69" y="103.74" width="3562.45" height="2127.01" style="fill:none;stroke:#FFFFFF;stroke-width:5.76"/>
	<line x1="290.81" y1="2170.27" x2="3859.02" y2="2170.27" style="stroke:#EAF2F3;stroke-width:8.64"/>
	<line x1="290.81" y1="1802.10" x2="3859.02" y2="1802.10" style="stroke:#EAF2F3;stroke-width:8.64"/>
	<line x1="290.81" y1="1433.94" x2="3859.02" y2="1433.94" style="stroke:#EAF2F3;stroke-width:8.64"/>
	<line x1="290.81" y1="1065.77" x2="3859.02" y2="1065.77" style="stroke:#EAF2F3;stroke-width:8.64"/>
	<line x1="290.81" y1="697.60" x2="3859.02" y2="697.60" style="stroke:#EAF2F3;stroke-width:8.64"/>
	<line x1="290.81" y1="329.31" x2="3859.02" y2="329.31" style="stroke:#EAF2F3;stroke-width:8.64"/>
	<circle cx="560.59" cy="2021.15" r="26.35" style="fill:#1A476F"/>
	<circle cx="560.59" cy="2021.15" r="22.03" style="fill:none;stroke:#1A476F;stroke-width:8.64"/>
	<circle cx="606.13" cy="1979.69" r="26.35" style="fill:#1A476F"/>
	<circle cx="606.13" cy="1979.69" r="22.03" style="fill:none;stroke:#1A476F;stroke-width:8.64"/>
	<circle cx="651.30" cy="1940.46" r="26.35" style="fill:#1A476F"/>
	<circle cx="651.30" cy="1940.46" r="22.03" style="fill:none;stroke:#1A476F;stroke-width:8.64"/>
	<circle cx="696.22" cy="1902.96" r="26.35" style="fill:#1A476F"/>
	<circle cx="696.22" cy="1902.96" r="22.03" style="fill:none;stroke:#1A476F;stroke-width:8.64"/>
	<circle cx="740.77" cy="1866.58" r="26.35" style="fill:#1A476F"/>
	<circle cx="740.77" cy="1866.58" r="22.03" style="fill:none;stroke:#1A476F;stroke-width:8.64"/>
	<circle cx="784.95" cy="1830.81" r="26.35" style="fill:#1A476F"/>
	<circle cx="784.95" cy="1830.81" r="22.03" style="fill:none;stroke:#1A476F;stroke-width:8.64"/>
	<circle cx="828.88" cy="1795.42" r="26.35" style="fill:#1A476F"/>
	<circle cx="828.88" cy="1795.42" r="22.03" style="fill:none;stroke:#1A476F;stroke-width:8.64"/>
	<circle cx="872.44" cy="1760.15" r="26.35" style="fill:#1A476F"/>
	<circle cx="872.44" cy="1760.15" r="22.03" style="fill:none;stroke:#1A476F;stroke-width:8.64"/>
	<circle cx="915.63" cy="1725.01" r="26.35" style="fill:#1A476F"/>
	<circle cx="915.63" cy="1725.01" r="22.03" style="fill:none;stroke:#1A476F;stroke-width:8.64"/>
	<circle cx="958.57" cy="1690.11" r="26.35" style="fill:#1A476F"/>
	<circle cx="958.57" cy="1690.11" r="22.03" style="fill:none;stroke:#1A476F;stroke-width:8.64"/>
	<circle cx="1001.26" cy="1655.58" r="26.35" style="fill:#1A476F"/>
	<circle cx="1001.26" cy="1655.58" r="22.03" style="fill:none;stroke:#1A476F;stroke-width:8.64"/>
	<circle cx="1043.58" cy="1621.42" r="26.35" style="fill:#1A476F"/>
	<circle cx="1043.58" cy="1621.42" r="22.03" style="fill:none;stroke:#1A476F;stroke-width:8.64"/>
	<circle cx="1085.54" cy="1588.01" r="26.35" style="fill:#1A476F"/>
	<circle cx="1085.54" cy="1588.01" r="22.03" style="fill:none;stroke:#1A476F;stroke-width:8.64"/>
	<circle cx="1127.24" cy="1555.34" r="26.35" style="fill:#1A476F"/>
	<circle cx="1127.24" cy="1555.34" r="22.03" style="fill:none;stroke:#1A476F;stroke-width:8.64"/>
	<circle cx="1168.57" cy="1523.66" r="26.35" style="fill:#1A476F"/>
	<circle cx="1168.57" cy="1523.66" r="22.03" style="fill:none;stroke:#1A476F;stroke-width:8.64"/>
	<circle cx="1209.66" cy="1492.97" r="26.35" style="fill:#1A476F"/>
	<circle cx="1209.66" cy="1492.97" r="22.03" style="fill:none;stroke:#1A476F;stroke-width:8.64"/>
	<circle cx="1250.49" cy="1463.39" r="26.35" style="fill:#1A476F"/>
	<circle cx="1250.49" cy="1463.39" r="22.03" style="fill:none;stroke:#1A476F;stroke-width:8.64"/>
	<circle cx="1290.96" cy="1435.05" r="26.35" style="fill:#1A476F"/>
	<circle cx="1290.96" cy="1435.05" r="22.03" style="fill:none;stroke:#1A476F;stroke-width:8.64"/>
	<circle cx="1331.18" cy="1407.95" r="26.35" style="fill:#1A476F"/>
	<circle cx="1331.18" cy="1407.95" r="22.03" style="fill:none;stroke:#1A476F;stroke-width:8.64"/>
	<circle cx="1371.03" cy="1382.21" r="26.35" style="fill:#1A476F"/>
	<circle cx="1371.03" cy="1382.21" r="22.03" style="fill:none;stroke:#1A476F;stroke-width:8.64"/>
	<circle cx="1410.63" cy="1357.95" r="26.35" style="fill:#1A476F"/>
	<circle cx="1410.63" cy="1357.95" r="22.03" style="fill:none;stroke:#1A476F;stroke-width:8.64"/>
	<circle cx="1449.98" cy="1334.93" r="26.35" style="fill:#1A476F"/>
	<circle cx="1449.98" cy="1334.93" r="22.03" style="fill:none;stroke:#1A476F;stroke-width:8.64"/>
	<circle cx="1488.96" cy="1313.40" r="26.35" style="fill:#1A476F"/>
	<circle cx="1488.96" cy="1313.40" r="22.03" style="fill:none;stroke:#1A476F;stroke-width:8.64"/>
	<circle cx="1527.69" cy="1293.10" r="26.35" style="fill:#1A476F"/>
	<circle cx="1527.69" cy="1293.10" r="22.03" style="fill:none;stroke:#1A476F;stroke-width:8.64"/>
	<circle cx="1566.06" cy="1274.05" r="26.35" style="fill:#1A476F"/>
	<circle cx="1566.06" cy="1274.05" r="22.03" style="fill:none;stroke:#1A476F;stroke-width:8.64"/>
	<circle cx="1604.30" cy="1255.98" r="26.35" style="fill:#1A476F"/>
	<circle cx="1604.30" cy="1255.98" r="22.03" style="fill:none;stroke:#1A476F;stroke-width:8.64"/>
	<circle cx="1642.16" cy="1238.90" r="26.35" style="fill:#1A476F"/>
	<circle cx="1642.16" cy="1238.90" r="22.03" style="fill:none;stroke:#1A476F;stroke-width:8.64"/>
	<circle cx="1679.78" cy="1222.44" r="26.35" style="fill:#1A476F"/>
	<circle cx="1679.78" cy="1222.44" r="22.03" style="fill:none;stroke:#1A476F;stroke-width:8.64"/>
	<circle cx="1717.16" cy="1206.48" r="26.35" style="fill:#1A476F"/>
	<circle cx="1717.16" cy="1206.48" r="22.03" style="fill:none;stroke:#1A476F;stroke-width:8.64"/>
	<circle cx="1754.16" cy="1190.88" r="26.35" style="fill:#1A476F"/>
	<circle cx="1754.16" cy="1190.88" r="22.03" style="fill:none;stroke:#1A476F;stroke-width:8.64"/>
	<circle cx="1790.91" cy="1175.66" r="26.35" style="fill:#1A476F"/>
	<circle cx="1790.91" cy="1175.66" r="22.03" style="fill:none;stroke:#1A476F;stroke-width:8.64"/>
	<circle cx="1827.42" cy="1160.69" r="26.35" style="fill:#1A476F"/>
	<circle cx="1827.42" cy="1160.69" r="22.03" style="fill:none;stroke:#1A476F;stroke-width:8.64"/>
	<circle cx="1863.68" cy="1145.84" r="26.35" style="fill:#1A476F"/>
	<circle cx="1863.68" cy="1145.84" r="22.03" style="fill:none;stroke:#1A476F;stroke-width:8.64"/>
	<circle cx="1899.69" cy="1131.23" r="26.35" style="fill:#1A476F"/>
	<circle cx="1899.69" cy="1131.23" r="22.03" style="fill:none;stroke:#1A476F;stroke-width:8.64"/>
	<circle cx="1935.45" cy="1116.75" r="26.35" style="fill:#1A476F"/>
	<circle cx="1935.45" cy="1116.75" r="22.03" style="fill:none;stroke:#1A476F;stroke-width:8.64"/>
	<circle cx="1970.84" cy="1102.40" r="26.35" style="fill:#1A476F"/>
	<circle cx="1970.84" cy="1102.40" r="22.03" style="fill:none;stroke:#1A476F;stroke-width:8.64"/>
	<circle cx="2006.11" cy="1088.17" r="26.35" style="fill:#1A476F"/>
	<circle cx="2006.11" cy="1088.17" r="22.03" style="fill:none;stroke:#1A476F;stroke-width:8.64"/>
	<circle cx="2041.01" cy="1074.18" r="26.35" style="fill:#1A476F"/>
	<circle cx="2041.01" cy="1074.18" r="22.03" style="fill:none;stroke:#1A476F;stroke-width:8.64"/>
	<circle cx="2075.66" cy="1060.20" r="26.35" style="fill:#1A476F"/>
	<circle cx="2075.66" cy="1060.20" r="22.03" style="fill:none;stroke:#1A476F;stroke-width:8.64"/>
	<circle cx="2110.06" cy="1046.34" r="26.35" style="fill:#1A476F"/>
	<circle cx="2110.06" cy="1046.34" r="22.03" style="fill:none;stroke:#1A476F;stroke-width:8.64"/>
	<circle cx="2144.22" cy="1032.60" r="26.35" style="fill:#1A476F"/>
	<circle cx="2144.22" cy="1032.60" r="22.03" style="fill:none;stroke:#1A476F;stroke-width:8.64"/>
	<circle cx="2178.25" cy="1018.87" r="26.35" style="fill:#1A476F"/>
	<circle cx="2178.25" cy="1018.87" r="22.03" style="fill:none;stroke:#1A476F;stroke-width:8.64"/>
	<circle cx="2211.91" cy="1005.25" r="26.35" style="fill:#1A476F"/>
	<circle cx="2211.91" cy="1005.25" r="22.03" style="fill:none;stroke:#1A476F;stroke-width:8.64"/>
	<circle cx="2245.32" cy="992.01" r="26.35" style="fill:#1A476F"/>
	<circle cx="2245.32" cy="992.01" r="22.03" style="fill:none;stroke:#1A476F;stroke-width:8.64"/>
	<circle cx="2278.49" cy="978.89" r="26.35" style="fill:#1A476F"/>
	<circle cx="2278.49" cy="978.89" r="22.03" style="fill:none;stroke:#1A476F;stroke-width:8.64"/>
	<circle cx="2311.40" cy="966.27" r="26.35" style="fill:#1A476F"/>
	<circle cx="2311.40" cy="966.27" r="22.03" style="fill:none;stroke:#1A476F;stroke-width:8.64"/>
	<circle cx="2344.07" cy="954.14" r="26.35" style="fill:#1A476F"/>
	<circle cx="2344.07" cy="954.14" r="22.03" style="fill:none;stroke:#1A476F;stroke-width:8.64"/>
	<circle cx="2376.62" cy="942.51" r="26.35" style="fill:#1A476F"/>
	<circle cx="2376.62" cy="942.51" r="22.03" style="fill:none;stroke:#1A476F;stroke-width:8.64"/>
	<circle cx="2408.79" cy="931.50" r="26.35" style="fill:#1A476F"/>
	<circle cx="2408.79" cy="931.50" r="22.03" style="fill:none;stroke:#1A476F;stroke-width:8.64"/>
	<circle cx="2440.72" cy="921.22" r="26.35" style="fill:#1A476F"/>
	<circle cx="2440.72" cy="921.22" r="22.03" style="fill:none;stroke:#1A476F;stroke-width:8.64"/>
	<circle cx="2472.53" cy="911.57" r="26.35" style="fill:#1A476F"/>
	<circle cx="2472.53" cy="911.57" r="22.03" style="fill:none;stroke:#1A476F;stroke-width:8.64"/>
	<circle cx="2504.08" cy="902.41" r="26.35" style="fill:#1A476F"/>
	<circle cx="2504.08" cy="902.41" r="22.03" style="fill:none;stroke:#1A476F;stroke-width:8.64"/>
	<circle cx="2535.27" cy="893.75" r="26.35" style="fill:#1A476F"/>
	<circle cx="2535.27" cy="893.75" r="22.03" style="fill:none;stroke:#1A476F;stroke-width:8.64"/>
	<circle cx="2566.33" cy="885.21" r="26.35" style="fill:#1A476F"/>
	<circle cx="2566.33" cy="885.21" r="22.03" style="fill:none;stroke:#1A476F;stroke-width:8.64"/>
	<circle cx="2597.14" cy="876.80" r="26.35" style="fill:#1A476F"/>
	<circle cx="2597.14" cy="876.80" r="22.03" style="fill:none;stroke:#1A476F;stroke-width:8.64"/>
	<circle cx="2627.83" cy="868.01" r="26.35" style="fill:#1A476F"/>
	<circle cx="2627.83" cy="868.01" r="22.03" style="fill:none;stroke:#1A476F;stroke-width:8.64"/>
	<circle cx="2658.15" cy="858.98" r="26.35" style="fill:#1A476F"/>
	<circle cx="2658.15" cy="858.98" r="22.03" style="fill:none;stroke:#1A476F;stroke-width:8.64"/>
	<circle cx="2688.35" cy="849.32" r="26.35" style="fill:#1A476F"/>
	<circle cx="2688.35" cy="849.32" r="22.03" style="fill:none;stroke:#1A476F;stroke-width:8.64"/>
	<circle cx="2718.29" cy="838.80" r="26.35" style="fill:#1A476F"/>
	<circle cx="2718.29" cy="838.80" r="22.03" style="fill:none;stroke:#1A476F;stroke-width:8.64"/>
	<circle cx="2747.99" cy="827.67" r="26.35" style="fill:#1A476F"/>
	<circle cx="2747.99" cy="827.67" r="22.03" style="fill:none;stroke:#1A476F;stroke-width:8.64"/>
	<circle cx="2777.45" cy="815.66" r="26.35" style="fill:#1A476F"/>
	<circle cx="2777.45" cy="815.66" r="22.03" style="fill:none;stroke:#1A476F;stroke-width:8.64"/>
	<circle cx="2806.77" cy="802.67" r="26.35" style="fill:#1A476F"/>
	<circle cx="2806.77" cy="802.67" r="22.03" style="fill:none;stroke:#1A476F;stroke-width:8.64"/>
	<circle cx="2835.86" cy="789.05" r="26.35" style="fill:#1A476F"/>
	<circle cx="2835.86" cy="789.05" r="22.03" style="fill:none;stroke:#1A476F;stroke-width:8.64"/>
	<circle cx="2864.69" cy="774.70" r="26.35" style="fill:#1A476F"/>
	<circle cx="2864.69" cy="774.70" r="22.03" style="fill:none;stroke:#1A476F;stroke-width:8.64"/>
	<circle cx="2893.28" cy="759.60" r="26.35" style="fill:#1A476F"/>
	<circle cx="2893.28" cy="759.60" r="22.03" style="fill:none;stroke:#1A476F;stroke-width:8.64"/>
	<circle cx="2921.74" cy="744.13" r="26.35" style="fill:#1A476F"/>
	<circle cx="2921.74" cy="744.13" r="22.03" style="fill:none;stroke:#1A476F;stroke-width:8.64"/>
	<circle cx="2949.95" cy="728.42" r="26.35" style="fill:#1A476F"/>
	<circle cx="2949.95" cy="728.42" r="22.03" style="fill:none;stroke:#1A476F;stroke-width:8.64"/>
	<circle cx="2977.92" cy="712.45" r="26.35" style="fill:#1A476F"/>
	<circle cx="2977.92" cy="712.45" r="22.03" style="fill:none;stroke:#1A476F;stroke-width:8.64"/>
	<circle cx="3005.76" cy="696.49" r="26.35" style="fill:#1A476F"/>
	<circle cx="3005.76" cy="696.49" r="22.03" style="fill:none;stroke:#1A476F;stroke-width:8.64"/>
	<circle cx="3033.36" cy="680.77" r="26.35" style="fill:#1A476F"/>
	<circle cx="3033.36" cy="680.77" r="22.03" style="fill:none;stroke:#1A476F;stroke-width:8.64"/>
	<circle cx="3060.83" cy="665.42" r="26.35" style="fill:#1A476F"/>
	<circle cx="3060.83" cy="665.42" r="22.03" style="fill:none;stroke:#1A476F;stroke-width:8.64"/>
	<circle cx="3087.93" cy="650.33" r="26.35" style="fill:#1A476F"/>
	<circle cx="3087.93" cy="650.33" r="22.03" style="fill:none;stroke:#1A476F;stroke-width:8.64"/>
	<circle cx="3115.04" cy="635.35" r="26.35" style="fill:#1A476F"/>
	<circle cx="3115.04" cy="635.35" r="22.03" style="fill:none;stroke:#1A476F;stroke-width:8.64"/>
	<circle cx="3141.77" cy="620.25" r="26.35" style="fill:#1A476F"/>
	<circle cx="3141.77" cy="620.25" r="22.03" style="fill:none;stroke:#1A476F;stroke-width:8.64"/>
	<circle cx="3168.37" cy="604.41" r="26.35" style="fill:#1A476F"/>
	<circle cx="3168.37" cy="604.41" r="22.03" style="fill:none;stroke:#1A476F;stroke-width:8.64"/>
	<circle cx="3194.85" cy="587.21" r="26.35" style="fill:#1A476F"/>
	<circle cx="3194.85" cy="587.21" r="22.03" style="fill:none;stroke:#1A476F;stroke-width:8.64"/>
	<circle cx="3220.97" cy="568.03" r="26.35" style="fill:#1A476F"/>
	<circle cx="3220.97" cy="568.03" r="22.03" style="fill:none;stroke:#1A476F;stroke-width:8.64"/>
	<circle cx="3247.08" cy="546.37" r="26.35" style="fill:#1A476F"/>
	<circle cx="3247.08" cy="546.37" r="22.03" style="fill:none;stroke:#1A476F;stroke-width:8.64"/>
	<circle cx="3272.82" cy="521.99" r="26.35" style="fill:#1A476F"/>
	<circle cx="3272.82" cy="521.99" r="22.03" style="fill:none;stroke:#1A476F;stroke-width:8.64"/>
	<circle cx="3298.56" cy="494.89" r="26.35" style="fill:#1A476F"/>
	<circle cx="3298.56" cy="494.89" r="22.03" style="fill:none;stroke:#1A476F;stroke-width:8.64"/>
	<circle cx="3323.93" cy="464.94" r="26.35" style="fill:#1A476F"/>
	<circle cx="3323.93" cy="464.94" r="22.03" style="fill:none;stroke:#1A476F;stroke-width:8.64"/>
	<circle cx="3349.29" cy="432.64" r="26.35" style="fill:#1A476F"/>
	<circle cx="3349.29" cy="432.64" r="22.03" style="fill:none;stroke:#1A476F;stroke-width:8.64"/>
	<circle cx="3374.29" cy="398.49" r="26.35" style="fill:#1A476F"/>
	<circle cx="3374.29" cy="398.49" r="22.03" style="fill:none;stroke:#1A476F;stroke-width:8.64"/>
	<circle cx="3399.29" cy="363.09" r="26.35" style="fill:#1A476F"/>
	<circle cx="3399.29" cy="363.09" r="22.03" style="fill:none;stroke:#1A476F;stroke-width:8.64"/>
	<circle cx="3423.92" cy="327.21" r="26.35" style="fill:#1A476F"/>
	<circle cx="3423.92" cy="327.21" r="22.03" style="fill:none;stroke:#1A476F;stroke-width:8.64"/>
	<circle cx="3448.54" cy="292.18" r="26.35" style="fill:#1A476F"/>
	<circle cx="3448.54" cy="292.18" r="22.03" style="fill:none;stroke:#1A476F;stroke-width:8.64"/>
	<circle cx="3472.80" cy="258.89" r="26.35" style="fill:#1A476F"/>
	<circle cx="3472.80" cy="258.89" r="22.03" style="fill:none;stroke:#1A476F;stroke-width:8.64"/>
	<circle cx="3497.05" cy="228.70" r="26.35" style="fill:#1A476F"/>
	<circle cx="3497.05" cy="228.70" r="22.03" style="fill:none;stroke:#1A476F;stroke-width:8.64"/>
	<circle cx="3521.06" cy="202.96" r="26.35" style="fill:#1A476F"/>
	<circle cx="3521.06" cy="202.96" r="22.03" style="fill:none;stroke:#1A476F;stroke-width:8.64"/>
	<circle cx="3544.82" cy="182.78" r="26.35" style="fill:#1A476F"/>
	<circle cx="3544.82" cy="182.78" r="22.03" style="fill:none;stroke:#1A476F;stroke-width:8.64"/>
	<circle cx="3568.46" cy="169.42" r="26.35" style="fill:#1A476F"/>
	<circle cx="3568.46" cy="169.42" r="22.03" style="fill:none;stroke:#1A476F;stroke-width:8.64"/>
	<circle cx="3591.97" cy="164.22" r="26.35" style="fill:#1A476F"/>
	<circle cx="3591.97" cy="164.22" r="22.03" style="fill:none;stroke:#1A476F;stroke-width:8.64"/>
	<circle cx="3615.23" cy="168.43" r="26.35" style="fill:#1A476F"/>
	<circle cx="3615.23" cy="168.43" r="22.03" style="fill:none;stroke:#1A476F;stroke-width:8.64"/>
	<circle cx="3638.37" cy="183.40" r="26.35" style="fill:#1A476F"/>
	<circle cx="3638.37" cy="183.40" r="22.03" style="fill:none;stroke:#1A476F;stroke-width:8.64"/>
	<circle cx="3661.39" cy="210.38" r="26.35" style="fill:#1A476F"/>
	<circle cx="3661.39" cy="210.38" r="22.03" style="fill:none;stroke:#1A476F;stroke-width:8.64"/>
	<circle cx="3684.16" cy="250.35" r="26.35" style="fill:#1A476F"/>
	<circle cx="3684.16" cy="250.35" r="22.03" style="fill:none;stroke:#1A476F;stroke-width:8.64"/>
	<circle cx="3706.81" cy="303.57" r="26.35" style="fill:#1A476F"/>
	<circle cx="3706.81" cy="303.57" r="22.03" style="fill:none;stroke:#1A476F;stroke-width:8.64"/>
	<circle cx="3729.21" cy="370.15" r="26.35" style="fill:#1A476F"/>
	<circle cx="3729.21" cy="370.15" r="22.03" style="fill:none;stroke:#1A476F;stroke-width:8.64"/>
	<circle cx="3751.61" cy="449.10" r="26.35" style="fill:#1A476F"/>
	<circle cx="3751.61" cy="449.10" r="22.03" style="fill:none;stroke:#1A476F;stroke-width:8.64"/>
	<circle cx="3773.63" cy="538.82" r="26.35" style="fill:#1A476F"/>
	<circle cx="3773.63" cy="538.82" r="22.03" style="fill:none;stroke:#1A476F;stroke-width:8.64"/>
	<circle cx="3795.66" cy="636.96" r="26.35" style="fill:#1A476F"/>
	<circle cx="3795.66" cy="636.96" r="22.03" style="fill:none;stroke:#1A476F;stroke-width:8.64"/>
	<circle cx="560.59" cy="2047.14" r="26.35" style="fill:#90353B"/>
	<circle cx="560.59" cy="2047.14" r="22.03" style="fill:none;stroke:#90353B;stroke-width:8.64"/>
	<circle cx="606.13" cy="1988.60" r="26.35" style="fill:#90353B"/>
	<circle cx="606.13" cy="1988.60" r="22.03" style="fill:none;stroke:#90353B;stroke-width:8.64"/>
	<circle cx="651.30" cy="1934.77" r="26.35" style="fill:#90353B"/>
	<circle cx="651.30" cy="1934.77" r="22.03" style="fill:none;stroke:#90353B;stroke-width:8.64"/>
	<circle cx="696.22" cy="1885.02" r="26.35" style="fill:#90353B"/>
	<circle cx="696.22" cy="1885.02" r="22.03" style="fill:none;stroke:#90353B;stroke-width:8.64"/>
	<circle cx="740.77" cy="1838.61" r="26.35" style="fill:#90353B"/>
	<circle cx="740.77" cy="1838.61" r="22.03" style="fill:none;stroke:#90353B;stroke-width:8.64"/>
	<circle cx="784.95" cy="1795.42" r="26.35" style="fill:#90353B"/>
	<circle cx="784.95" cy="1795.42" r="22.03" style="fill:none;stroke:#90353B;stroke-width:8.64"/>
	<circle cx="828.88" cy="1754.83" r="26.35" style="fill:#90353B"/>
	<circle cx="828.88" cy="1754.83" r="22.03" style="fill:none;stroke:#90353B;stroke-width:8.64"/>
	<circle cx="872.44" cy="1716.71" r="26.35" style="fill:#90353B"/>
	<circle cx="872.44" cy="1716.71" r="22.03" style="fill:none;stroke:#90353B;stroke-width:8.64"/>
	<circle cx="915.63" cy="1680.58" r="26.35" style="fill:#90353B"/>
	<circle cx="915.63" cy="1680.58" r="22.03" style="fill:none;stroke:#90353B;stroke-width:8.64"/>
	<circle cx="958.57" cy="1646.55" r="26.35" style="fill:#90353B"/>
	<circle cx="958.57" cy="1646.55" r="22.03" style="fill:none;stroke:#90353B;stroke-width:8.64"/>
	<circle cx="1001.26" cy="1614.12" r="26.35" style="fill:#90353B"/>
	<circle cx="1001.26" cy="1614.12" r="22.03" style="fill:none;stroke:#90353B;stroke-width:8.64"/>
	<circle cx="1043.58" cy="1583.43" r="26.35" style="fill:#90353B"/>
	<circle cx="1043.58" cy="1583.43" r="22.03" style="fill:none;stroke:#90353B;stroke-width:8.64"/>
	<circle cx="1085.54" cy="1554.10" r="26.35" style="fill:#90353B"/>
	<circle cx="1085.54" cy="1554.10" r="22.03" style="fill:none;stroke:#90353B;stroke-width:8.64"/>
	<circle cx="1127.24" cy="1526.01" r="26.35" style="fill:#90353B"/>
	<circle cx="1127.24" cy="1526.01" r="22.03" style="fill:none;stroke:#90353B;stroke-width:8.64"/>
	<circle cx="1168.57" cy="1499.28" r="26.35" style="fill:#90353B"/>
	<circle cx="1168.57" cy="1499.28" r="22.03" style="fill:none;stroke:#90353B;stroke-width:8.64"/>
	<circle cx="1209.66" cy="1473.66" r="26.35" style="fill:#90353B"/>
	<circle cx="1209.66" cy="1473.66" r="22.03" style="fill:none;stroke:#90353B;stroke-width:8.64"/>
	<circle cx="1250.49" cy="1449.03" r="26.35" style="fill:#90353B"/>
	<circle cx="1250.49" cy="1449.03" r="22.03" style="fill:none;stroke:#90353B;stroke-width:8.64"/>
	<circle cx="1331.18" cy="1402.63" r="26.35" style="fill:#90353B"/>
	<circle cx="1331.18" cy="1402.63" r="22.03" style="fill:none;stroke:#90353B;stroke-width:8.64"/>
	<circle cx="1371.03" cy="1380.72" r="26.35" style="fill:#90353B"/>
	<circle cx="1371.03" cy="1380.72" r="22.03" style="fill:none;stroke:#90353B;stroke-width:8.64"/>
	<circle cx="1410.63" cy="1359.56" r="26.35" style="fill:#90353B"/>
	<circle cx="1410.63" cy="1359.56" r="22.03" style="fill:none;stroke:#90353B;stroke-width:8.64"/>
	<circle cx="1449.98" cy="1339.26" r="26.35" style="fill:#90353B"/>
	<circle cx="1449.98" cy="1339.26" r="22.03" style="fill:none;stroke:#90353B;stroke-width:8.64"/>
	<circle cx="1488.96" cy="1319.59" r="26.35" style="fill:#90353B"/>
	<circle cx="1488.96" cy="1319.59" r="22.03" style="fill:none;stroke:#90353B;stroke-width:8.64"/>
	<circle cx="1527.69" cy="1300.53" r="26.35" style="fill:#90353B"/>
	<circle cx="1527.69" cy="1300.53" r="22.03" style="fill:none;stroke:#90353B;stroke-width:8.64"/>
	<circle cx="1679.78" cy="1230.24" r="26.35" style="fill:#90353B"/>
	<circle cx="1679.78" cy="1230.24" r="22.03" style="fill:none;stroke:#90353B;stroke-width:8.64"/>
	<circle cx="1717.16" cy="1213.90" r="26.35" style="fill:#90353B"/>
	<circle cx="1717.16" cy="1213.90" r="22.03" style="fill:none;stroke:#90353B;stroke-width:8.64"/>
	<circle cx="1754.16" cy="1198.06" r="26.35" style="fill:#90353B"/>
	<circle cx="1754.16" cy="1198.06" r="22.03" style="fill:none;stroke:#90353B;stroke-width:8.64"/>
	<circle cx="1790.91" cy="1182.72" r="26.35" style="fill:#90353B"/>
	<circle cx="1790.91" cy="1182.72" r="22.03" style="fill:none;stroke:#90353B;stroke-width:8.64"/>
	<circle cx="1827.42" cy="1167.74" r="26.35" style="fill:#90353B"/>
	<circle cx="1827.42" cy="1167.74" r="22.03" style="fill:none;stroke:#90353B;stroke-width:8.64"/>
	<circle cx="1863.68" cy="1153.26" r="26.35" style="fill:#90353B"/>
	<circle cx="1863.68" cy="1153.26" r="22.03" style="fill:none;stroke:#90353B;stroke-width:8.64"/>
	<circle cx="1935.45" cy="1125.29" r="26.35" style="fill:#90353B"/>
	<circle cx="1935.45" cy="1125.29" r="22.03" style="fill:none;stroke:#90353B;stroke-width:8.64"/>
	<circle cx="1970.84" cy="1111.80" r="26.35" style="fill:#90353B"/>
	<circle cx="1970.84" cy="1111.80" r="22.03" style="fill:none;stroke:#90353B;stroke-width:8.64"/>
	<circle cx="2006.11" cy="1098.69" r="26.35" style="fill:#90353B"/>
	<circle cx="2006.11" cy="1098.69" r="22.03" style="fill:none;stroke:#90353B;stroke-width:8.64"/>
	<circle cx="2110.06" cy="1061.31" r="26.35" style="fill:#90353B"/>
	<circle cx="2110.06" cy="1061.31" r="22.03" style="fill:none;stroke:#90353B;stroke-width:8.64"/>
	<circle cx="2144.22" cy="1049.43" r="26.35" style="fill:#90353B"/>
	<circle cx="2144.22" cy="1049.43" r="22.03" style="fill:none;stroke:#90353B;stroke-width:8.64"/>
	<circle cx="2178.25" cy="1037.80" r="26.35" style="fill:#90353B"/>
	<circle cx="2178.25" cy="1037.80" r="22.03" style="fill:none;stroke:#90353B;stroke-width:8.64"/>
	<circle cx="2211.91" cy="1026.54" r="26.35" style="fill:#90353B"/>
	<circle cx="2211.91" cy="1026.54" r="22.03" style="fill:none;stroke:#90353B;stroke-width:8.64"/>
	<circle cx="2245.32" cy="1015.40" r="26.35" style="fill:#90353B"/>
	<circle cx="2245.32" cy="1015.40" r="22.03" style="fill:none;stroke:#90353B;stroke-width:8.64"/>
	<circle cx="2278.49" cy="1004.51" r="26.35" style="fill:#90353B"/>
	<circle cx="2278.49" cy="1004.51" r="22.03" style="fill:none;stroke:#90353B;stroke-width:8.64"/>
	<circle cx="2311.40" cy="993.87" r="26.35" style="fill:#90353B"/>
	<circle cx="2311.40" cy="993.87" r="22.03" style="fill:none;stroke:#90353B;stroke-width:8.64"/>
	<circle cx="2344.07" cy="983.60" r="26.35" style="fill:#90353B"/>
	<circle cx="2344.07" cy="983.60" r="22.03" style="fill:none;stroke:#90353B;stroke-width:8.64"/>
	<circle cx="2376.62" cy="973.32" r="26.35" style="fill:#90353B"/>
	<circle cx="2376.62" cy="973.32" r="22.03" style="fill:none;stroke:#90353B;stroke-width:8.64"/>
	<circle cx="2440.72" cy="953.65" r="26.35" style="fill:#90353B"/>
	<circle cx="2440.72" cy="953.65" r="22.03" style="fill:none;stroke:#90353B;stroke-width:8.64"/>
	<circle cx="2472.53" cy="944.12" r="26.35" style="fill:#90353B"/>
	<circle cx="2472.53" cy="944.12" r="22.03" style="fill:none;stroke:#90353B;stroke-width:8.64"/>
	<circle cx="2504.08" cy="934.71" r="26.35" style="fill:#90353B"/>
	<circle cx="2504.08" cy="934.71" r="22.03" style="fill:none;stroke:#90353B;stroke-width:8.64"/>
	<circle cx="2597.14" cy="907.73" r="26.35" style="fill:#90353B"/>
	<circle cx="2597.14" cy="907.73" r="22.03" style="fill:none;stroke:#90353B;stroke-width:8.64"/>
	<circle cx="2627.83" cy="899.07" r="26.35" style="fill:#90353B"/>
	<circle cx="2627.83" cy="899.07" r="22.03" style="fill:none;stroke:#90353B;stroke-width:8.64"/>
	<circle cx="2658.15" cy="890.53" r="26.35" style="fill:#90353B"/>
	<circle cx="2658.15" cy="890.53" r="22.03" style="fill:none;stroke:#90353B;stroke-width:8.64"/>
	<circle cx="2688.35" cy="882.24" r="26.35" style="fill:#90353B"/>
	<circle cx="2688.35" cy="882.24" r="22.03" style="fill:none;stroke:#90353B;stroke-width:8.64"/>
	<circle cx="2718.29" cy="874.07" r="26.35" style="fill:#90353B"/>
	<circle cx="2718.29" cy="874.07" r="22.03" style="fill:none;stroke:#90353B;stroke-width:8.64"/>
	<circle cx="2747.99" cy="866.03" r="26.35" style="fill:#90353B"/>
	<circle cx="2747.99" cy="866.03" r="22.03" style="fill:none;stroke:#90353B;stroke-width:8.64"/>
	<circle cx="2806.77" cy="850.44" r="26.35" style="fill:#90353B"/>
	<circle cx="2806.77" cy="850.44" r="22.03" style="fill:none;stroke:#90353B;stroke-width:8.64"/>
	<circle cx="2835.86" cy="842.76" r="26.35" style="fill:#90353B"/>
	<circle cx="2835.86" cy="842.76" r="22.03" style="fill:none;stroke:#90353B;stroke-width:8.64"/>
	<circle cx="2864.69" cy="835.34" r="26.35" style="fill:#90353B"/>
	<circle cx="2864.69" cy="835.34" r="22.03" style="fill:none;stroke:#90353B;stroke-width:8.64"/>
	<circle cx="2921.74" cy="820.74" r="26.35" style="fill:#90353B"/>
	<circle cx="2921.74" cy="820.74" r="22.03" style="fill:none;stroke:#90353B;stroke-width:8.64"/>
	<circle cx="2949.95" cy="813.56" r="26.35" style="fill:#90353B"/>
	<circle cx="2949.95" cy="813.56" r="22.03" style="fill:none;stroke:#90353B;stroke-width:8.64"/>
	<circle cx="2977.92" cy="806.63" r="26.35" style="fill:#90353B"/>
	<circle cx="2977.92" cy="806.63" r="22.03" style="fill:none;stroke:#90353B;stroke-width:8.64"/>
	<circle cx="3005.76" cy="799.82" r="26.35" style="fill:#90353B"/>
	<circle cx="3005.76" cy="799.82" r="22.03" style="fill:none;stroke:#90353B;stroke-width:8.64"/>
	<circle cx="3033.36" cy="793.01" r="26.35" style="fill:#90353B"/>
	<circle cx="3033.36" cy="793.01" r="22.03" style="fill:none;stroke:#90353B;stroke-width:8.64"/>
	<circle cx="3060.83" cy="786.33" r="26.35" style="fill:#90353B"/>
	<circle cx="3060.83" cy="786.33" r="22.03" style="fill:none;stroke:#90353B;stroke-width:8.64"/>
	<circle cx="3087.93" cy="779.77" r="26.35" style="fill:#90353B"/>
	<circle cx="3087.93" cy="779.77" r="22.03" style="fill:none;stroke:#90353B;stroke-width:8.64"/>
	<circle cx="3115.04" cy="773.34" r="26.35" style="fill:#90353B"/>
	<circle cx="3115.04" cy="773.34" r="22.03" style="fill:none;stroke:#90353B;stroke-width:8.64"/>
	<circle cx="3141.77" cy="767.03" r="26.35" style="fill:#90353B"/>
	<circle cx="3141.77" cy="767.03" r="22.03" style="fill:none;stroke:#90353B;stroke-width:8.64"/>
	<circle cx="3168.37" cy="760.84" r="26.35" style="fill:#90353B"/>
	<circle cx="3168.37" cy="760.84" r="22.03" style="fill:none;stroke:#90353B;stroke-width:8.64"/>
	<circle cx="3220.97" cy="748.71" r="26.35" style="fill:#90353B"/>
	<circle cx="3220.97" cy="748.71" r="22.03" style="fill:none;stroke:#90353B;stroke-width:8.64"/>
	<circle cx="3247.08" cy="742.77" r="26.35" style="fill:#90353B"/>
	<circle cx="3247.08" cy="742.77" r="22.03" style="fill:none;stroke:#90353B;stroke-width:8.64"/>
	<circle cx="3272.82" cy="736.83" r="26.35" style="fill:#90353B"/>
	<circle cx="3272.82" cy="736.83" r="22.03" style="fill:none;stroke:#90353B;stroke-width:8.64"/>
	<circle cx="3298.56" cy="731.14" r="26.35" style="fill:#90353B"/>
	<circle cx="3298.56" cy="731.14" r="22.03" style="fill:none;stroke:#90353B;stroke-width:8.64"/>
	<circle cx="3323.93" cy="725.45" r="26.35" style="fill:#90353B"/>
	<circle cx="3323.93" cy="725.45" r="22.03" style="fill:none;stroke:#90353B;stroke-width:8.64"/>
	<circle cx="3399.29" cy="708.86" r="26.35" style="fill:#90353B"/>
	<circle cx="3399.29" cy="708.86" r="22.03" style="fill:none;stroke:#90353B;stroke-width:8.64"/>
	<circle cx="3423.92" cy="703.54" r="26.35" style="fill:#90353B"/>
	<circle cx="3423.92" cy="703.54" r="22.03" style="fill:none;stroke:#90353B;stroke-width:8.64"/>
	<circle cx="3448.54" cy="698.22" r="26.35" style="fill:#90353B"/>
	<circle cx="3448.54" cy="698.22" r="22.03" style="fill:none;stroke:#90353B;stroke-width:8.64"/>
	<circle cx="3472.80" cy="693.02" r="26.35" style="fill:#90353B"/>
	<circle cx="3472.80" cy="693.02" r="22.03" style="fill:none;stroke:#90353B;stroke-width:8.64"/>
	<circle cx="3497.05" cy="687.95" r="26.35" style="fill:#90353B"/>
	<circle cx="3497.05" cy="687.95" r="22.03" style="fill:none;stroke:#90353B;stroke-width:8.64"/>
	<circle cx="3521.06" cy="682.87" r="26.35" style="fill:#90353B"/>
	<circle cx="3521.06" cy="682.87" r="22.03" style="fill:none;stroke:#90353B;stroke-width:8.64"/>
	<circle cx="3544.82" cy="677.92" r="26.35" style="fill:#90353B"/>
	<circle cx="3544.82" cy="677.92" r="22.03" style="fill:none;stroke:#90353B;stroke-width:8.64"/>
	<circle cx="3568.46" cy="672.97" r="26.35" style="fill:#90353B"/>
	<circle cx="3568.46" cy="672.97" r="22.03" style="fill:none;stroke:#90353B;stroke-width:8.64"/>
	<circle cx="3591.97" cy="668.15" r="26.35" style="fill:#90353B"/>
	<circle cx="3591.97" cy="668.15" r="22.03" style="fill:none;stroke:#90353B;stroke-width:8.64"/>
	<circle cx="3615.23" cy="663.44" r="26.35" style="fill:#90353B"/>
	<circle cx="3615.23" cy="663.44" r="22.03" style="fill:none;stroke:#90353B;stroke-width:8.64"/>
	<circle cx="3661.39" cy="654.04" r="26.35" style="fill:#90353B"/>
	<circle cx="3661.39" cy="654.04" r="22.03" style="fill:none;stroke:#90353B;stroke-width:8.64"/>
	<circle cx="3706.81" cy="644.88" r="26.35" style="fill:#90353B"/>
	<circle cx="3706.81" cy="644.88" r="22.03" style="fill:none;stroke:#90353B;stroke-width:8.64"/>
	<circle cx="3729.21" cy="640.43" r="26.35" style="fill:#90353B"/>
	<circle cx="3729.21" cy="640.43" r="22.03" style="fill:none;stroke:#90353B;stroke-width:8.64"/>
	<circle cx="3773.63" cy="631.76" r="26.35" style="fill:#90353B"/>
	<circle cx="3773.63" cy="631.76" r="22.03" style="fill:none;stroke:#90353B;stroke-width:8.64"/>
	<line x1="290.81" y1="2233.63" x2="290.81" y2="100.86" style="stroke:#000000;stroke-width:5.76"/>
	<line x1="290.81" y1="2170.27" x2="250.84" y2="2170.27" style="stroke:#000000;stroke-width:5.76"/>
	<text x="200.73" y="2170.27" style="font-family:'Helvetica';font-size:99.99px;fill:#000000" transform="rotate(-90 200.73,2170.27)" text-anchor="middle">-7</text>
	<line x1="290.81" y1="1802.10" x2="250.84" y2="1802.10" style="stroke:#000000;stroke-width:5.76"/>
	<text x="200.73" y="1802.10" style="font-family:'Helvetica';font-size:99.99px;fill:#000000" transform="rotate(-90 200.73,1802.10)" text-anchor="middle">-6</text>
	<line x1="290.81" y1="1433.94" x2="250.84" y2="1433.94" style="stroke:#000000;stroke-width:5.76"/>
	<text x="200.73" y="1433.94" style="font-family:'Helvetica';font-size:99.99px;fill:#000000" transform="rotate(-90 200.73,1433.94)" text-anchor="middle">-5</text>
	<line x1="290.81" y1="1065.77" x2="250.84" y2="1065.77" style="stroke:#000000;stroke-width:5.76"/>
	<text x="200.73" y="1065.77" style="font-family:'Helvetica';font-size:99.99px;fill:#000000" transform="rotate(-90 200.73,1065.77)" text-anchor="middle">-4</text>
	<line x1="290.81" y1="697.60" x2="250.84" y2="697.60" style="stroke:#000000;stroke-width:5.76"/>
	<text x="200.73" y="697.60" style="font-family:'Helvetica';font-size:99.99px;fill:#000000" transform="rotate(-90 200.73,697.60)" text-anchor="middle">-3</text>
	<line x1="290.81" y1="329.31" x2="250.84" y2="329.31" style="stroke:#000000;stroke-width:5.76"/>
	<text x="200.73" y="329.31" style="font-family:'Helvetica';font-size:99.99px;fill:#000000" transform="rotate(-90 200.73,329.31)" text-anchor="middle">-2</text>
	<line x1="290.81" y1="2233.63" x2="3859.02" y2="2233.63" style="stroke:#000000;stroke-width:5.76"/>
	<line x1="354.17" y1="2233.63" x2="354.17" y2="2273.73" style="stroke:#000000;stroke-width:5.76"/>
	<text x="354.17" y="2363.59" style="font-family:'Helvetica';font-size:99.99px;fill:#000000" text-anchor="middle">0</text>
	<line x1="1042.47" y1="2233.63" x2="1042.47" y2="2273.73" style="stroke:#000000;stroke-width:5.76"/>
	<text x="1042.47" y="2363.59" style="font-family:'Helvetica';font-size:99.99px;fill:#000000" text-anchor="middle">.2</text>
	<line x1="1730.77" y1="2233.63" x2="1730.77" y2="2273.73" style="stroke:#000000;stroke-width:5.76"/>
	<text x="1730.77" y="2363.59" style="font-family:'Helvetica';font-size:99.99px;fill:#000000" text-anchor="middle">.4</text>
	<line x1="2419.07" y1="2233.63" x2="2419.07" y2="2273.73" style="stroke:#000000;stroke-width:5.76"/>
	<text x="2419.07" y="2363.59" style="font-family:'Helvetica';font-size:99.99px;fill:#000000" text-anchor="middle">.6</text>
	<line x1="3107.36" y1="2233.63" x2="3107.36" y2="2273.73" style="stroke:#000000;stroke-width:5.76"/>
	<text x="3107.36" y="2363.59" style="font-family:'Helvetica';font-size:99.99px;fill:#000000" text-anchor="middle">.8</text>
	<line x1="3795.66" y1="2233.63" x2="3795.66" y2="2273.73" style="stroke:#000000;stroke-width:5.76"/>
	<text x="3795.66" y="2363.59" style="font-family:'Helvetica';font-size:99.99px;fill:#000000" text-anchor="middle">1</text>
	<text x="2074.92" y="2473.60" style="font-family:'Helvetica';font-size:99.99px;fill:#000000" text-anchor="middle">rho_points1</text>
	<rect x="1494.65" y="2558.24" width="1160.53" height="186.37" style="fill:#FFFFFF"/>
	<rect x="1497.53" y="2561.12" width="1154.77" height="180.61" style="fill:none;stroke:#000000;stroke-width:5.76"/>
	<circle cx="1559.87" cy="2651.43" r="26.35" style="fill:#1A476F"/>
	<circle cx="1559.87" cy="2651.43" r="22.03" style="fill:none;stroke:#1A476F;stroke-width:8.64"/>
	<circle cx="2302.49" cy="2651.43" r="26.35" style="fill:#90353B"/>
	<circle cx="2302.49" cy="2651.43" r="22.03" style="fill:none;stroke:#90353B;stroke-width:8.64"/>
	<text x="1641.79" y="2686.46" style="font-family:'Helvetica';font-size:99.99px;fill:#000000">y1_points1</text>
	<text x="2384.54" y="2686.46" style="font-family:'Helvetica';font-size:99.99px;fill:#000000">ytrue</text>
</svg>
